# xmcd CD database file
#
# Track frame offsets:
#	150
#	13668
#	34642
#	50096
#	66122
#	80397
#	94952
#	112852
#	137046
#	150423
#	168707
#	183225
#	196437
#	206356
#
# Disc length: 2921 seconds
#
# Revision: 0
# Processed by: cddbd v1.5.1PL0 Copyright (c) Steve Scherf et al.
# Submitted via: Feurio! 1.64 - http://www.feurio.com
#
DISCID=b60b670e
DTITLE=Медведев Олег - Алые крылья
DYEAR=1900
DGENRE=
TTITLE0=Мальчик
TTITLE1=Алые крылья
TTITLE2=Браво, парень
TTITLE3=Вальс Гемоглобин
TTITLE4=Марш небесных связистов
TTITLE5=Прием, прием...
TTITLE6=Крестик
TTITLE7=Лето
TTITLE8=Маленький Принц
TTITLE9=Сивка-Бурка (Марш Трансвааль)
TTITLE10=Держись, машинист!
TTITLE11=Тигры Гипербореи
TTITLE12=Черное солнце
TTITLE13=Страна лимонных корочек
EXTD=
EXTT0=
EXTT1=
EXTT2=
EXTT3=
EXTT4=
EXTT5=
EXTT6=
EXTT7=
EXTT8=
EXTT9=
EXTT10=
EXTT11=
EXTT12=
EXTT13=
PLAYORDER=
